G04 #@! TF.FileFunction,Legend,Top*
%FSLAX46Y46*%
G04 Gerber Fmt 4.6, Leading zero omitted, Abs format (unit mm)*
G04 Created by KiCad (PCBNEW 4.0.6-e0-6349~53~ubuntu16.04.1) date Mon Apr 24 16:30:31 2017*
%MOMM*%
%LPD*%
G01*
G04 APERTURE LIST*
%ADD10C,0.100000*%
%ADD11C,0.250000*%
%ADD12C,0.125000*%
%ADD13C,0.350000*%
%ADD14C,0.150000*%
%ADD15C,0.450000*%
%ADD16C,0.180000*%
G04 APERTURE END LIST*
D10*
D11*
X128024000Y-108457904D02*
X127976381Y-108553142D01*
X127976381Y-108695999D01*
X128024000Y-108838857D01*
X128119238Y-108934095D01*
X128214476Y-108981714D01*
X128404952Y-109029333D01*
X128547810Y-109029333D01*
X128738286Y-108981714D01*
X128833524Y-108934095D01*
X128928762Y-108838857D01*
X128976381Y-108695999D01*
X128976381Y-108600761D01*
X128928762Y-108457904D01*
X128881143Y-108410285D01*
X128547810Y-108410285D01*
X128547810Y-108600761D01*
X128976381Y-107981714D02*
X127976381Y-107981714D01*
X128976381Y-107410285D01*
X127976381Y-107410285D01*
X128976381Y-106934095D02*
X127976381Y-106934095D01*
X127976381Y-106696000D01*
X128024000Y-106553142D01*
X128119238Y-106457904D01*
X128214476Y-106410285D01*
X128404952Y-106362666D01*
X128547810Y-106362666D01*
X128738286Y-106410285D01*
X128833524Y-106457904D01*
X128928762Y-106553142D01*
X128976381Y-106696000D01*
X128976381Y-106934095D01*
X164536381Y-126960190D02*
X163536381Y-126960190D01*
X164488762Y-126531619D02*
X164536381Y-126388762D01*
X164536381Y-126150666D01*
X164488762Y-126055428D01*
X164441143Y-126007809D01*
X164345905Y-125960190D01*
X164250667Y-125960190D01*
X164155429Y-126007809D01*
X164107810Y-126055428D01*
X164060190Y-126150666D01*
X164012571Y-126341143D01*
X163964952Y-126436381D01*
X163917333Y-126484000D01*
X163822095Y-126531619D01*
X163726857Y-126531619D01*
X163631619Y-126484000D01*
X163584000Y-126436381D01*
X163536381Y-126341143D01*
X163536381Y-126103047D01*
X163584000Y-125960190D01*
X164536381Y-125531619D02*
X163536381Y-125531619D01*
X163536381Y-125150666D01*
X163584000Y-125055428D01*
X163631619Y-125007809D01*
X163726857Y-124960190D01*
X163869714Y-124960190D01*
X163964952Y-125007809D01*
X164012571Y-125055428D01*
X164060190Y-125150666D01*
X164060190Y-125531619D01*
X124134571Y-125182190D02*
X124134571Y-125515524D01*
X124658381Y-125515524D02*
X123658381Y-125515524D01*
X123658381Y-125039333D01*
X123658381Y-124801238D02*
X123658381Y-124229809D01*
X124658381Y-124515524D02*
X123658381Y-124515524D01*
X124658381Y-123896476D02*
X123658381Y-123896476D01*
X123658381Y-123658381D01*
X123706000Y-123515523D01*
X123801238Y-123420285D01*
X123896476Y-123372666D01*
X124086952Y-123325047D01*
X124229810Y-123325047D01*
X124420286Y-123372666D01*
X124515524Y-123420285D01*
X124610762Y-123515523D01*
X124658381Y-123658381D01*
X124658381Y-123896476D01*
X124658381Y-122896476D02*
X123658381Y-122896476D01*
X153725714Y-111196381D02*
X153725714Y-110196381D01*
X153963809Y-110196381D01*
X154106667Y-110244000D01*
X154201905Y-110339238D01*
X154249524Y-110434476D01*
X154297143Y-110624952D01*
X154297143Y-110767810D01*
X154249524Y-110958286D01*
X154201905Y-111053524D01*
X154106667Y-111148762D01*
X153963809Y-111196381D01*
X153725714Y-111196381D01*
X155249524Y-111196381D02*
X154678095Y-111196381D01*
X154963809Y-111196381D02*
X154963809Y-110196381D01*
X154868571Y-110339238D01*
X154773333Y-110434476D01*
X154678095Y-110482095D01*
X155582857Y-110196381D02*
X156201905Y-110196381D01*
X155868571Y-110577333D01*
X156011429Y-110577333D01*
X156106667Y-110624952D01*
X156154286Y-110672571D01*
X156201905Y-110767810D01*
X156201905Y-111005905D01*
X156154286Y-111101143D01*
X156106667Y-111148762D01*
X156011429Y-111196381D01*
X155725714Y-111196381D01*
X155630476Y-111148762D01*
X155582857Y-111101143D01*
X165631905Y-111196381D02*
X165631905Y-110196381D01*
X165870000Y-110196381D01*
X166012858Y-110244000D01*
X166108096Y-110339238D01*
X166155715Y-110434476D01*
X166203334Y-110624952D01*
X166203334Y-110767810D01*
X166155715Y-110958286D01*
X166108096Y-111053524D01*
X166012858Y-111148762D01*
X165870000Y-111196381D01*
X165631905Y-111196381D01*
X166679524Y-111196381D02*
X166870000Y-111196381D01*
X166965239Y-111148762D01*
X167012858Y-111101143D01*
X167108096Y-110958286D01*
X167155715Y-110767810D01*
X167155715Y-110386857D01*
X167108096Y-110291619D01*
X167060477Y-110244000D01*
X166965239Y-110196381D01*
X166774762Y-110196381D01*
X166679524Y-110244000D01*
X166631905Y-110291619D01*
X166584286Y-110386857D01*
X166584286Y-110624952D01*
X166631905Y-110720190D01*
X166679524Y-110767810D01*
X166774762Y-110815429D01*
X166965239Y-110815429D01*
X167060477Y-110767810D01*
X167108096Y-110720190D01*
X167155715Y-110624952D01*
D12*
X123106667Y-112748190D02*
X122940000Y-112510095D01*
X122820953Y-112748190D02*
X122820953Y-112248190D01*
X123011429Y-112248190D01*
X123059048Y-112272000D01*
X123082857Y-112295810D01*
X123106667Y-112343429D01*
X123106667Y-112414857D01*
X123082857Y-112462476D01*
X123059048Y-112486286D01*
X123011429Y-112510095D01*
X122820953Y-112510095D01*
X123273334Y-112248190D02*
X123606667Y-112748190D01*
X123606667Y-112248190D02*
X123273334Y-112748190D01*
X122809048Y-110470190D02*
X123094762Y-110470190D01*
X122951905Y-110970190D02*
X122951905Y-110470190D01*
X123213810Y-110470190D02*
X123547143Y-110970190D01*
X123547143Y-110470190D02*
X123213810Y-110970190D01*
D11*
X122134381Y-132397333D02*
X123134381Y-132064000D01*
X122134381Y-131730666D01*
X123039143Y-130825904D02*
X123086762Y-130873523D01*
X123134381Y-131016380D01*
X123134381Y-131111618D01*
X123086762Y-131254476D01*
X122991524Y-131349714D01*
X122896286Y-131397333D01*
X122705810Y-131444952D01*
X122562952Y-131444952D01*
X122372476Y-131397333D01*
X122277238Y-131349714D01*
X122182000Y-131254476D01*
X122134381Y-131111618D01*
X122134381Y-131016380D01*
X122182000Y-130873523D01*
X122229619Y-130825904D01*
X123039143Y-129825904D02*
X123086762Y-129873523D01*
X123134381Y-130016380D01*
X123134381Y-130111618D01*
X123086762Y-130254476D01*
X122991524Y-130349714D01*
X122896286Y-130397333D01*
X122705810Y-130444952D01*
X122562952Y-130444952D01*
X122372476Y-130397333D01*
X122277238Y-130349714D01*
X122182000Y-130254476D01*
X122134381Y-130111618D01*
X122134381Y-130016380D01*
X122182000Y-129873523D01*
X122229619Y-129825904D01*
X172172381Y-132143333D02*
X173172381Y-131810000D01*
X172172381Y-131476666D01*
X173077143Y-130571904D02*
X173124762Y-130619523D01*
X173172381Y-130762380D01*
X173172381Y-130857618D01*
X173124762Y-131000476D01*
X173029524Y-131095714D01*
X172934286Y-131143333D01*
X172743810Y-131190952D01*
X172600952Y-131190952D01*
X172410476Y-131143333D01*
X172315238Y-131095714D01*
X172220000Y-131000476D01*
X172172381Y-130857618D01*
X172172381Y-130762380D01*
X172220000Y-130619523D01*
X172267619Y-130571904D01*
X173077143Y-129571904D02*
X173124762Y-129619523D01*
X173172381Y-129762380D01*
X173172381Y-129857618D01*
X173124762Y-130000476D01*
X173029524Y-130095714D01*
X172934286Y-130143333D01*
X172743810Y-130190952D01*
X172600952Y-130190952D01*
X172410476Y-130143333D01*
X172315238Y-130095714D01*
X172220000Y-130000476D01*
X172172381Y-129857618D01*
X172172381Y-129762380D01*
X172220000Y-129619523D01*
X172267619Y-129571904D01*
X171704096Y-105672000D02*
X171608858Y-105624381D01*
X171466001Y-105624381D01*
X171323143Y-105672000D01*
X171227905Y-105767238D01*
X171180286Y-105862476D01*
X171132667Y-106052952D01*
X171132667Y-106195810D01*
X171180286Y-106386286D01*
X171227905Y-106481524D01*
X171323143Y-106576762D01*
X171466001Y-106624381D01*
X171561239Y-106624381D01*
X171704096Y-106576762D01*
X171751715Y-106529143D01*
X171751715Y-106195810D01*
X171561239Y-106195810D01*
X172180286Y-106624381D02*
X172180286Y-105624381D01*
X172751715Y-106624381D01*
X172751715Y-105624381D01*
X173227905Y-106624381D02*
X173227905Y-105624381D01*
X173466000Y-105624381D01*
X173608858Y-105672000D01*
X173704096Y-105767238D01*
X173751715Y-105862476D01*
X173799334Y-106052952D01*
X173799334Y-106195810D01*
X173751715Y-106386286D01*
X173704096Y-106481524D01*
X173608858Y-106576762D01*
X173466000Y-106624381D01*
X173227905Y-106624381D01*
X147574096Y-110244000D02*
X147478858Y-110196381D01*
X147336001Y-110196381D01*
X147193143Y-110244000D01*
X147097905Y-110339238D01*
X147050286Y-110434476D01*
X147002667Y-110624952D01*
X147002667Y-110767810D01*
X147050286Y-110958286D01*
X147097905Y-111053524D01*
X147193143Y-111148762D01*
X147336001Y-111196381D01*
X147431239Y-111196381D01*
X147574096Y-111148762D01*
X147621715Y-111101143D01*
X147621715Y-110767810D01*
X147431239Y-110767810D01*
X148050286Y-111196381D02*
X148050286Y-110196381D01*
X148621715Y-111196381D01*
X148621715Y-110196381D01*
X149097905Y-111196381D02*
X149097905Y-110196381D01*
X149336000Y-110196381D01*
X149478858Y-110244000D01*
X149574096Y-110339238D01*
X149621715Y-110434476D01*
X149669334Y-110624952D01*
X149669334Y-110767810D01*
X149621715Y-110958286D01*
X149574096Y-111053524D01*
X149478858Y-111148762D01*
X149336000Y-111196381D01*
X149097905Y-111196381D01*
X150304667Y-110196381D02*
X150638000Y-111196381D01*
X150971334Y-110196381D01*
X151876096Y-111101143D02*
X151828477Y-111148762D01*
X151685620Y-111196381D01*
X151590382Y-111196381D01*
X151447524Y-111148762D01*
X151352286Y-111053524D01*
X151304667Y-110958286D01*
X151257048Y-110767810D01*
X151257048Y-110624952D01*
X151304667Y-110434476D01*
X151352286Y-110339238D01*
X151447524Y-110244000D01*
X151590382Y-110196381D01*
X151685620Y-110196381D01*
X151828477Y-110244000D01*
X151876096Y-110291619D01*
X152876096Y-111101143D02*
X152828477Y-111148762D01*
X152685620Y-111196381D01*
X152590382Y-111196381D01*
X152447524Y-111148762D01*
X152352286Y-111053524D01*
X152304667Y-110958286D01*
X152257048Y-110767810D01*
X152257048Y-110624952D01*
X152304667Y-110434476D01*
X152352286Y-110339238D01*
X152447524Y-110244000D01*
X152590382Y-110196381D01*
X152685620Y-110196381D01*
X152828477Y-110244000D01*
X152876096Y-110291619D01*
X144065714Y-110910667D02*
X144541905Y-110910667D01*
X143970476Y-111196381D02*
X144303809Y-110196381D01*
X144637143Y-111196381D01*
X145160952Y-110196381D02*
X145256191Y-110196381D01*
X145351429Y-110244000D01*
X145399048Y-110291619D01*
X145446667Y-110386857D01*
X145494286Y-110577333D01*
X145494286Y-110815429D01*
X145446667Y-111005905D01*
X145399048Y-111101143D01*
X145351429Y-111148762D01*
X145256191Y-111196381D01*
X145160952Y-111196381D01*
X145065714Y-111148762D01*
X145018095Y-111101143D01*
X144970476Y-111005905D01*
X144922857Y-110815429D01*
X144922857Y-110577333D01*
X144970476Y-110386857D01*
X145018095Y-110291619D01*
X145065714Y-110244000D01*
X145160952Y-110196381D01*
X131365714Y-110910667D02*
X131841905Y-110910667D01*
X131270476Y-111196381D02*
X131603809Y-110196381D01*
X131937143Y-111196381D01*
X132746667Y-110196381D02*
X132270476Y-110196381D01*
X132222857Y-110672571D01*
X132270476Y-110624952D01*
X132365714Y-110577333D01*
X132603810Y-110577333D01*
X132699048Y-110624952D01*
X132746667Y-110672571D01*
X132794286Y-110767810D01*
X132794286Y-111005905D01*
X132746667Y-111101143D01*
X132699048Y-111148762D01*
X132603810Y-111196381D01*
X132365714Y-111196381D01*
X132270476Y-111148762D01*
X132222857Y-111101143D01*
X161821905Y-131770381D02*
X161821905Y-130770381D01*
X162060000Y-130770381D01*
X162202858Y-130818000D01*
X162298096Y-130913238D01*
X162345715Y-131008476D01*
X162393334Y-131198952D01*
X162393334Y-131341810D01*
X162345715Y-131532286D01*
X162298096Y-131627524D01*
X162202858Y-131722762D01*
X162060000Y-131770381D01*
X161821905Y-131770381D01*
X162964762Y-131198952D02*
X162869524Y-131151333D01*
X162821905Y-131103714D01*
X162774286Y-131008476D01*
X162774286Y-130960857D01*
X162821905Y-130865619D01*
X162869524Y-130818000D01*
X162964762Y-130770381D01*
X163155239Y-130770381D01*
X163250477Y-130818000D01*
X163298096Y-130865619D01*
X163345715Y-130960857D01*
X163345715Y-131008476D01*
X163298096Y-131103714D01*
X163250477Y-131151333D01*
X163155239Y-131198952D01*
X162964762Y-131198952D01*
X162869524Y-131246571D01*
X162821905Y-131294190D01*
X162774286Y-131389429D01*
X162774286Y-131579905D01*
X162821905Y-131675143D01*
X162869524Y-131722762D01*
X162964762Y-131770381D01*
X163155239Y-131770381D01*
X163250477Y-131722762D01*
X163298096Y-131675143D01*
X163345715Y-131579905D01*
X163345715Y-131389429D01*
X163298096Y-131294190D01*
X163250477Y-131246571D01*
X163155239Y-131198952D01*
X134643905Y-131516381D02*
X134643905Y-130516381D01*
X134882000Y-130516381D01*
X135024858Y-130564000D01*
X135120096Y-130659238D01*
X135167715Y-130754476D01*
X135215334Y-130944952D01*
X135215334Y-131087810D01*
X135167715Y-131278286D01*
X135120096Y-131373524D01*
X135024858Y-131468762D01*
X134882000Y-131516381D01*
X134643905Y-131516381D01*
X135834381Y-130516381D02*
X135929620Y-130516381D01*
X136024858Y-130564000D01*
X136072477Y-130611619D01*
X136120096Y-130706857D01*
X136167715Y-130897333D01*
X136167715Y-131135429D01*
X136120096Y-131325905D01*
X136072477Y-131421143D01*
X136024858Y-131468762D01*
X135929620Y-131516381D01*
X135834381Y-131516381D01*
X135739143Y-131468762D01*
X135691524Y-131421143D01*
X135643905Y-131325905D01*
X135596286Y-131135429D01*
X135596286Y-130897333D01*
X135643905Y-130706857D01*
X135691524Y-130611619D01*
X135739143Y-130564000D01*
X135834381Y-130516381D01*
D13*
X146685000Y-106045000D02*
X153035000Y-106045000D01*
X153035000Y-106045000D02*
X153035000Y-109855000D01*
X153035000Y-109855000D02*
X146685000Y-109855000D01*
X146685000Y-109855000D02*
X146685000Y-106045000D01*
X149860000Y-106045000D02*
X149860000Y-109855000D01*
D14*
X146685000Y-110490000D02*
X149860000Y-110490000D01*
D13*
X178435000Y-132715000D02*
X178435000Y-106045000D01*
X178435000Y-106045000D02*
X182245000Y-106045000D01*
X182245000Y-106045000D02*
X182245000Y-132715000D01*
X182245000Y-132715000D02*
X178435000Y-132715000D01*
X178435000Y-129540000D02*
X182245000Y-129540000D01*
D14*
X182880000Y-132715000D02*
X182880000Y-129540000D01*
D13*
X146685000Y-109855000D02*
X130175000Y-109855000D01*
X130175000Y-109855000D02*
X130175000Y-106045000D01*
X130175000Y-106045000D02*
X146685000Y-106045000D01*
X146685000Y-106045000D02*
X146685000Y-109855000D01*
X143510000Y-109855000D02*
X143510000Y-106045000D01*
D14*
X146685000Y-105410000D02*
X143510000Y-105410000D01*
D13*
X172085000Y-123825000D02*
X172085000Y-132715000D01*
X172085000Y-132715000D02*
X165735000Y-132715000D01*
X165735000Y-132715000D02*
X165735000Y-123825000D01*
X165735000Y-123825000D02*
X172085000Y-123825000D01*
X168910000Y-123825000D02*
X168910000Y-127000000D01*
X168910000Y-127000000D02*
X165735000Y-127000000D01*
D14*
X165100000Y-123825000D02*
X165100000Y-127000000D01*
D13*
X127635000Y-106045000D02*
X127635000Y-122555000D01*
X127635000Y-122555000D02*
X123825000Y-122555000D01*
X123825000Y-122555000D02*
X123825000Y-106045000D01*
X123825000Y-106045000D02*
X127635000Y-106045000D01*
X127635000Y-109220000D02*
X123825000Y-109220000D01*
D14*
X123190000Y-106045000D02*
X123190000Y-109220000D01*
X171180000Y-110620000D02*
X171180000Y-110420000D01*
X171180000Y-110420000D02*
X171980000Y-110420000D01*
X171180000Y-110820000D02*
X171180000Y-110620000D01*
X171180000Y-110620000D02*
X171880000Y-110620000D01*
X171180000Y-111020000D02*
X171180000Y-110820000D01*
X171180000Y-110820000D02*
X171680000Y-110820000D01*
X171180000Y-111220000D02*
X171180000Y-111020000D01*
X171180000Y-111020000D02*
X171480000Y-111020000D01*
X169180000Y-110620000D02*
X169180000Y-110420000D01*
X169180000Y-110420000D02*
X168380000Y-110420000D01*
X169180000Y-110820000D02*
X169180000Y-110620000D01*
X169180000Y-110620000D02*
X168480000Y-110620000D01*
X169180000Y-111020000D02*
X169180000Y-110820000D01*
X169180000Y-110820000D02*
X168680000Y-110820000D01*
X169180000Y-111220000D02*
X169180000Y-111020000D01*
X169180000Y-111020000D02*
X168880000Y-111020000D01*
X171178949Y-111220525D02*
G75*
G03X169180000Y-111220000I-998949J2000525D01*
G01*
D13*
X128524000Y-132080000D02*
X128016000Y-132080000D01*
X131064000Y-132080000D02*
X130556000Y-132080000D01*
X130556000Y-132588000D02*
X130556000Y-131572000D01*
X130556000Y-131572000D02*
X128524000Y-131572000D01*
X128524000Y-131572000D02*
X128524000Y-132588000D01*
X128524000Y-132588000D02*
X130556000Y-132588000D01*
X168910000Y-115824000D02*
X168910000Y-115316000D01*
X168910000Y-118364000D02*
X168910000Y-117856000D01*
X168402000Y-117856000D02*
X169418000Y-117856000D01*
X169418000Y-117856000D02*
X169418000Y-115824000D01*
X169418000Y-115824000D02*
X168402000Y-115824000D01*
X168402000Y-115824000D02*
X168402000Y-117856000D01*
X131340000Y-121840000D02*
X132840000Y-121840000D01*
X166370000Y-120015000D02*
X167005000Y-120015000D01*
X167005000Y-120015000D02*
X167005000Y-113665000D01*
X167005000Y-113665000D02*
X166370000Y-113665000D01*
X130810000Y-118110000D02*
X130175000Y-118110000D01*
X130175000Y-118110000D02*
X130810000Y-118110000D01*
X130810000Y-118110000D02*
X130810000Y-115570000D01*
X130810000Y-115570000D02*
X130175000Y-115570000D01*
X130810000Y-120015000D02*
X130175000Y-120015000D01*
X130175000Y-120015000D02*
X130175000Y-113665000D01*
X130175000Y-113665000D02*
X130810000Y-113665000D01*
X149352000Y-125730000D02*
X148336000Y-125730000D01*
X150368000Y-125730000D02*
X151384000Y-125730000D01*
X150368000Y-125222000D02*
X150368000Y-126238000D01*
X149352000Y-125222000D02*
X149352000Y-126238000D01*
D15*
X149860000Y-125222000D02*
X149860000Y-126238000D01*
D13*
X152859740Y-123230640D02*
X146860260Y-123230640D01*
X146860260Y-128229360D02*
X152859740Y-128229360D01*
X152859740Y-128229360D02*
G75*
G03X155359100Y-125730000I0J2499360D01*
G01*
X155359100Y-125730000D02*
G75*
G03X152859740Y-123230640I-2499360J0D01*
G01*
X144360900Y-125730000D02*
G75*
G03X146860260Y-128229360I2499360J0D01*
G01*
X146860260Y-123230640D02*
G75*
G03X144360900Y-125730000I0J-2499360D01*
G01*
X167005000Y-109855000D02*
X153035000Y-109855000D01*
X153035000Y-109855000D02*
X153035000Y-106045000D01*
X153035000Y-106045000D02*
X167005000Y-106045000D01*
X167005000Y-106045000D02*
X167005000Y-109855000D01*
X163830000Y-109855000D02*
X163830000Y-106045000D01*
D14*
X167005000Y-105410000D02*
X163830000Y-105410000D01*
D13*
X136525000Y-128905000D02*
X160655000Y-128905000D01*
X160655000Y-128905000D02*
X160655000Y-132715000D01*
X160655000Y-132715000D02*
X136525000Y-132715000D01*
X136525000Y-132715000D02*
X136525000Y-128905000D01*
X139700000Y-128905000D02*
X139700000Y-132715000D01*
D14*
X136525000Y-133350000D02*
X139700000Y-133350000D01*
D13*
X118745000Y-132715000D02*
X118745000Y-106045000D01*
X118745000Y-106045000D02*
X122555000Y-106045000D01*
X122555000Y-106045000D02*
X122555000Y-132715000D01*
X122555000Y-132715000D02*
X118745000Y-132715000D01*
X118745000Y-129540000D02*
X122555000Y-129540000D01*
D14*
X123190000Y-132715000D02*
X123190000Y-129540000D01*
D13*
X173355000Y-132715000D02*
X173355000Y-106045000D01*
X173355000Y-106045000D02*
X177165000Y-106045000D01*
X177165000Y-106045000D02*
X177165000Y-132715000D01*
X177165000Y-132715000D02*
X173355000Y-132715000D01*
X173355000Y-129540000D02*
X177165000Y-129540000D01*
D14*
X177800000Y-132715000D02*
X177800000Y-129540000D01*
D16*
X127810000Y-128250000D02*
X127810000Y-125750000D01*
X128310000Y-130000000D02*
X133310000Y-130000000D01*
X128310000Y-124000000D02*
X133310000Y-124000000D01*
X133810000Y-128250000D02*
X133810000Y-125750000D01*
X132560000Y-127000000D02*
G75*
G03X132560000Y-127000000I-1750000J0D01*
G01*
X130175000Y-127000000D02*
X131445000Y-127000000D01*
X130810000Y-126365000D02*
X130810000Y-127635000D01*
D14*
X159753334Y-107511905D02*
X159753334Y-108083333D01*
X159715238Y-108197619D01*
X159639048Y-108273810D01*
X159524762Y-108311905D01*
X159448572Y-108311905D01*
X160477143Y-107511905D02*
X160324762Y-107511905D01*
X160248572Y-107550000D01*
X160210477Y-107588095D01*
X160134286Y-107702381D01*
X160096191Y-107854762D01*
X160096191Y-108159524D01*
X160134286Y-108235714D01*
X160172381Y-108273810D01*
X160248572Y-108311905D01*
X160400953Y-108311905D01*
X160477143Y-108273810D01*
X160515239Y-108235714D01*
X160553334Y-108159524D01*
X160553334Y-107969048D01*
X160515239Y-107892857D01*
X160477143Y-107854762D01*
X160400953Y-107816667D01*
X160248572Y-107816667D01*
X160172381Y-107854762D01*
X160134286Y-107892857D01*
X160096191Y-107969048D01*
M02*
