G04 #@! TF.FileFunction,Copper,L1,Top,Signal*
%FSLAX46Y46*%
G04 Gerber Fmt 4.6, Leading zero omitted, Abs format (unit mm)*
G04 Created by KiCad (PCBNEW 4.0.6-e0-6349~53~ubuntu16.04.1) date Mon Apr 24 16:30:31 2017*
%MOMM*%
%LPD*%
G01*
G04 APERTURE LIST*
%ADD10C,0.100000*%
%ADD11R,1.524000X2.286000*%
%ADD12O,1.524000X2.286000*%
%ADD13C,1.500000*%
%ADD14R,2.286000X1.524000*%
%ADD15O,2.286000X1.524000*%
%ADD16R,1.524000X1.524000*%
%ADD17C,1.524000*%
%ADD18R,1.300000X1.778000*%
%ADD19O,1.300000X1.778000*%
%ADD20C,1.600000*%
%ADD21C,0.600000*%
%ADD22C,0.250000*%
G04 APERTURE END LIST*
D10*
D11*
X148590000Y-107950000D03*
D12*
X151130000Y-107950000D03*
D13*
X124460000Y-132080000D03*
X124460000Y-129540000D03*
D14*
X180340000Y-130810000D03*
D15*
X180340000Y-128270000D03*
X180340000Y-125730000D03*
X180340000Y-123190000D03*
X180340000Y-120650000D03*
X180340000Y-118110000D03*
X180340000Y-115570000D03*
X180340000Y-113030000D03*
X180340000Y-110490000D03*
X180340000Y-107950000D03*
D13*
X143510000Y-124460000D03*
X143510000Y-127000000D03*
X156210000Y-127000000D03*
X156210000Y-124460000D03*
X125730000Y-127000000D03*
X125730000Y-124460000D03*
D11*
X144780000Y-107950000D03*
D12*
X142240000Y-107950000D03*
X139700000Y-107950000D03*
X137160000Y-107950000D03*
X134620000Y-107950000D03*
X132080000Y-107950000D03*
D14*
X167386000Y-125730000D03*
D15*
X167386000Y-128270000D03*
X167386000Y-130810000D03*
X170434000Y-125730000D03*
X170434000Y-128270000D03*
X170434000Y-130810000D03*
D14*
X125730000Y-107950000D03*
D15*
X125730000Y-110490000D03*
X125730000Y-113030000D03*
X125730000Y-115570000D03*
X125730000Y-118110000D03*
X125730000Y-120650000D03*
D16*
X170180000Y-110490000D03*
D17*
X170180000Y-107950000D03*
D13*
X132080000Y-132080000D03*
X127000000Y-132080000D03*
X168910000Y-119380000D03*
X168910000Y-114300000D03*
D18*
X132080000Y-120650000D03*
D19*
X134620000Y-120650000D03*
X137160000Y-120650000D03*
X139700000Y-120650000D03*
X142240000Y-120650000D03*
X144780000Y-120650000D03*
X147320000Y-120650000D03*
X149860000Y-120650000D03*
X152400000Y-120650000D03*
X154940000Y-120650000D03*
X157480000Y-120650000D03*
X160020000Y-120650000D03*
X162560000Y-120650000D03*
X165100000Y-120650000D03*
X165100000Y-113030000D03*
X162560000Y-113030000D03*
X160020000Y-113030000D03*
X157480000Y-113030000D03*
X154940000Y-113030000D03*
X152400000Y-113030000D03*
X149860000Y-113030000D03*
X147320000Y-113030000D03*
X144780000Y-113030000D03*
X142240000Y-113030000D03*
X139700000Y-113030000D03*
X137160000Y-113030000D03*
X134620000Y-113030000D03*
X132080000Y-113030000D03*
D13*
X147419060Y-125730000D03*
X152300940Y-125730000D03*
D11*
X165100000Y-107950000D03*
D12*
X162560000Y-107950000D03*
X160020000Y-107950000D03*
X157480000Y-107950000D03*
X154940000Y-107950000D03*
D11*
X138430000Y-130810000D03*
D12*
X140970000Y-130810000D03*
X143510000Y-130810000D03*
X146050000Y-130810000D03*
X148590000Y-130810000D03*
X151130000Y-130810000D03*
X153670000Y-130810000D03*
X156210000Y-130810000D03*
X158750000Y-130810000D03*
D14*
X120650000Y-130810000D03*
D15*
X120650000Y-128270000D03*
X120650000Y-125730000D03*
X120650000Y-123190000D03*
X120650000Y-120650000D03*
X120650000Y-118110000D03*
X120650000Y-115570000D03*
X120650000Y-113030000D03*
X120650000Y-110490000D03*
X120650000Y-107950000D03*
D14*
X175260000Y-130810000D03*
D15*
X175260000Y-128270000D03*
X175260000Y-125730000D03*
X175260000Y-123190000D03*
X175260000Y-120650000D03*
X175260000Y-118110000D03*
X175260000Y-115570000D03*
X175260000Y-113030000D03*
X175260000Y-110490000D03*
X175260000Y-107950000D03*
D20*
X127560000Y-129250000D03*
X134060000Y-129250000D03*
X134060000Y-124750000D03*
X127560000Y-124750000D03*
D21*
X128270000Y-116840000D03*
X151130000Y-124460000D03*
X151130000Y-128270000D03*
X146050000Y-128270000D03*
X154940000Y-116840000D03*
D22*
X127560000Y-124750000D02*
X127560000Y-127710000D01*
X124460000Y-128270000D02*
X124460000Y-129540000D01*
X127000000Y-128270000D02*
X124460000Y-128270000D01*
X127560000Y-127710000D02*
X127000000Y-128270000D01*
X147320000Y-113030000D02*
X147320000Y-109220000D01*
X147320000Y-109220000D02*
X148590000Y-107950000D01*
X127560000Y-124750000D02*
X127560000Y-123900000D01*
X128270000Y-123190000D02*
X128270000Y-116840000D01*
X127560000Y-123900000D02*
X128270000Y-123190000D01*
X120650000Y-107950000D02*
X125730000Y-107950000D01*
X149860000Y-120650000D02*
X149860000Y-123190000D01*
X149860000Y-123190000D02*
X151130000Y-124460000D01*
X143510000Y-124460000D02*
X146050000Y-124460000D01*
X146050000Y-124460000D02*
X149860000Y-120650000D01*
X152300940Y-125730000D02*
X152300940Y-123289060D01*
X152300940Y-123289060D02*
X154940000Y-120650000D01*
X143510000Y-127000000D02*
X152400000Y-127000000D01*
X152300940Y-123289060D02*
X154940000Y-120650000D01*
X152300940Y-126900940D02*
X152300940Y-123289060D01*
X152400000Y-127000000D02*
X152300940Y-126900940D01*
X146050000Y-128270000D02*
X151130000Y-128270000D01*
X134060000Y-129250000D02*
X134060000Y-127710000D01*
X132080000Y-125730000D02*
X132080000Y-120650000D01*
X134060000Y-127710000D02*
X132080000Y-125730000D01*
X131790000Y-120940000D02*
X132080000Y-120650000D01*
X125730000Y-124460000D02*
X125730000Y-120650000D01*
X175260000Y-130810000D02*
X180340000Y-130810000D01*
X170180000Y-125730000D02*
X172720000Y-128270000D01*
X172720000Y-128270000D02*
X175260000Y-130810000D01*
X147320000Y-120650000D02*
X149860000Y-118110000D01*
X170180000Y-123190000D02*
X170180000Y-125730000D01*
X165100000Y-118110000D02*
X170180000Y-123190000D01*
X149860000Y-118110000D02*
X165100000Y-118110000D01*
X152400000Y-113030000D02*
X152400000Y-109220000D01*
X152400000Y-109220000D02*
X151130000Y-107950000D01*
X147320000Y-115570000D02*
X130810000Y-115570000D01*
X128270000Y-113030000D02*
X125730000Y-113030000D01*
X130810000Y-115570000D02*
X128270000Y-113030000D01*
X147320000Y-120650000D02*
X147320000Y-115570000D01*
X147320000Y-115570000D02*
X149860000Y-113030000D01*
X149860000Y-113030000D02*
X152400000Y-113030000D01*
X134620000Y-120650000D02*
X134620000Y-121920000D01*
X135890000Y-128270000D02*
X138430000Y-130810000D01*
X135890000Y-123190000D02*
X135890000Y-128270000D01*
X134620000Y-121920000D02*
X135890000Y-123190000D01*
X125730000Y-115570000D02*
X120650000Y-110490000D01*
X125730000Y-115570000D02*
X129540000Y-115570000D01*
X129540000Y-115570000D02*
X134620000Y-120650000D01*
X125730000Y-118110000D02*
X120650000Y-113030000D01*
X137160000Y-120650000D02*
X137160000Y-127000000D01*
X137160000Y-127000000D02*
X140970000Y-130810000D01*
X143510000Y-130810000D02*
X138430000Y-125730000D01*
X138430000Y-121920000D02*
X139700000Y-120650000D01*
X138430000Y-125730000D02*
X138430000Y-121920000D01*
X142240000Y-120650000D02*
X142240000Y-124460000D01*
X143510000Y-128270000D02*
X146050000Y-130810000D01*
X142240000Y-128270000D02*
X143510000Y-128270000D01*
X140970000Y-127000000D02*
X142240000Y-128270000D01*
X140970000Y-125730000D02*
X140970000Y-127000000D01*
X142240000Y-124460000D02*
X140970000Y-125730000D01*
X151130000Y-130810000D02*
X151130000Y-129540000D01*
X158750000Y-121920000D02*
X157480000Y-120650000D01*
X158750000Y-124460000D02*
X158750000Y-121920000D01*
X157480000Y-125730000D02*
X158750000Y-124460000D01*
X154940000Y-125730000D02*
X157480000Y-125730000D01*
X151130000Y-129540000D02*
X154940000Y-125730000D01*
X153670000Y-130810000D02*
X156210000Y-128270000D01*
X160020000Y-125730000D02*
X160020000Y-120650000D01*
X157480000Y-128270000D02*
X160020000Y-125730000D01*
X156210000Y-128270000D02*
X157480000Y-128270000D01*
X156210000Y-130810000D02*
X161290000Y-125730000D01*
X162560000Y-121920000D02*
X162560000Y-120650000D01*
X162560000Y-124460000D02*
X162560000Y-121920000D01*
X161290000Y-125730000D02*
X162560000Y-124460000D01*
X158750000Y-130810000D02*
X158750000Y-129540000D01*
X163830000Y-121920000D02*
X165100000Y-120650000D01*
X163830000Y-124460000D02*
X163830000Y-121920000D01*
X158750000Y-129540000D02*
X163830000Y-124460000D01*
X160020000Y-113030000D02*
X160020000Y-107950000D01*
X157480000Y-113030000D02*
X157480000Y-107950000D01*
X154940000Y-113030000D02*
X154940000Y-116840000D01*
X154940000Y-113030000D02*
X154940000Y-107950000D01*
X144780000Y-107950000D02*
X144780000Y-113030000D01*
X142240000Y-113030000D02*
X142240000Y-107950000D01*
X139700000Y-113030000D02*
X139700000Y-107950000D01*
X137160000Y-113030000D02*
X137160000Y-107950000D01*
X134620000Y-113030000D02*
X134620000Y-107950000D01*
X132080000Y-113030000D02*
X132080000Y-107950000D01*
X165100000Y-113030000D02*
X165100000Y-107950000D01*
X162560000Y-113030000D02*
X162560000Y-107950000D01*
M02*
